<?xml version="1.0" standalone="no"?>
<!DOCTYPE svg PUBLIC "-//W3C//DTD SVG 20010904//EN"
 "http://www.w3.org/TR/2001/REC-SVG-20010904/DTD/svg10.dtd">
<svg version="1.0" xmlns="http://www.w3.org/2000/svg"
 width="512.000000pt" height="192.000000pt" viewBox="0 0 512.000000 192.000000"
 preserveAspectRatio="xMidYMid meet">

<g transform="translate(0.000000,192.000000) scale(0.100000,-0.100000)"
fill="#000000" stroke="none">
<path d="M670 1570 c-52 -49 -93 -90 -90 -91 43 -8 403 -43 409 -39 12 7 61
129 61 151 0 9 -8 27 -19 40 -17 21 -27 23 -142 26 l-124 4 -95 -91z"/>
<path d="M815 1200 c-110 -65 -120 -83 -69 -127 53 -47 95 -18 143 101 18 43
31 80 29 81 -2 2 -48 -23 -103 -55z"/>
<path d="M479 1210 c-9 -5 -41 -69 -70 -142 l-53 -132 21 -55 c11 -31 24 -63
27 -71 5 -12 -11 -24 -64 -50 l-70 -34 0 -148 0 -148 194 1 c107 0 200 -2 205
-6 6 -3 153 -3 326 1 l315 7 0 112 c0 62 -3 133 -6 158 l-7 46 -74 -65 -74
-65 -107 102 c-59 55 -108 104 -110 108 -1 3 50 64 114 134 l117 128 -25 57
c-28 67 -61 86 -106 61 -22 -12 -42 -51 -104 -204 -42 -104 -85 -195 -94 -202
-23 -17 -65 -17 -86 0 -9 6 -51 99 -93 205 -48 118 -84 196 -95 202 -23 12
-60 12 -81 0z"/>
<path d="M1764 1117 c-2 -7 -3 -96 -2 -197 3 -157 5 -185 18 -185 12 0 16 25
20 144 l5 144 59 -112 c32 -61 64 -111 70 -111 7 0 39 50 71 111 l60 111 5
-144 c4 -118 8 -143 20 -143 13 0 15 28 15 194 0 138 -3 195 -12 198 -6 2 -39
-49 -74 -114 -34 -65 -68 -126 -74 -136 -11 -16 -21 -2 -84 117 -69 130 -86
152 -97 123z"/>
<path d="M2395 1116 c-62 -27 -95 -93 -95 -189 0 -111 54 -184 143 -194 66 -8
113 4 152 38 42 37 59 85 58 166 -1 86 -30 145 -87 172 -49 24 -126 27 -171 7z
m160 -40 c40 -27 59 -74 59 -146 -1 -109 -45 -164 -133 -164 -96 1 -141 53
-141 164 0 91 32 145 95 163 32 9 94 0 120 -17z"/>
<path d="M2804 1116 c-3 -7 22 -56 55 -108 l61 -94 0 -87 c0 -52 4 -89 11 -93
20 -12 29 19 29 105 l0 84 55 87 c53 84 68 126 43 118 -7 -3 -32 -33 -55 -69
-74 -115 -62 -113 -122 -15 -52 85 -67 99 -77 72z"/>
<path d="M3313 1118 c-23 -29 -145 -358 -139 -374 9 -25 29 -4 50 55 l18 51
83 0 83 0 18 -47 c22 -62 41 -84 54 -63 5 8 7 17 5 20 -1 3 -35 87 -75 188
-39 100 -75 182 -79 182 -5 0 -13 -6 -18 -12z m46 -141 c17 -43 31 -80 31 -82
0 -3 -30 -5 -66 -5 -59 0 -65 2 -59 18 4 9 18 48 32 85 14 37 27 66 28 65 2
-2 17 -38 34 -81z"/>
<path d="M3714 1120 c-32 -13 -54 -50 -54 -91 0 -47 37 -81 115 -105 75 -24
97 -46 93 -92 -3 -31 -9 -40 -40 -55 -48 -23 -99 -14 -144 25 -29 26 -35 28
-40 13 -9 -22 30 -61 74 -76 19 -6 57 -9 85 -6 66 6 107 47 107 107 0 55 -30
85 -120 118 -80 29 -105 56 -91 96 19 52 104 57 161 10 26 -22 31 -23 36 -10
19 51 -108 96 -182 66z"/>
<path d="M4217 1123 c-22 -35 -147 -369 -143 -380 10 -26 28 -9 50 47 l22 55
83 0 83 0 22 -54 c22 -55 42 -74 51 -49 7 17 -136 380 -152 385 -6 2 -13 0
-16 -4z m50 -153 l31 -80 -68 0 -68 0 30 80 c17 44 34 80 37 80 3 0 20 -36 38
-80z"/>
<path d="M4570 931 c0 -129 4 -192 11 -197 20 -12 29 19 29 96 0 75 0 75 27
75 21 0 36 -13 72 -64 74 -104 88 -118 102 -104 9 10 0 28 -44 87 -32 42 -57
77 -57 79 0 3 13 7 30 10 55 12 86 92 58 152 -18 41 -57 55 -148 55 l-80 0 0
-189z m177 137 c29 -27 31 -80 3 -108 -16 -16 -33 -20 -80 -20 l-60 0 0 75 0
75 57 0 c44 0 62 -5 80 -22z"/>
<path d="M270 326 c0 -54 14 -59 192 -64 l161 -5 -7 26 c-3 14 -11 38 -16 52
l-10 25 -160 0 -160 0 0 -34z"/>
<path d="M801 318 c-27 -24 -50 -46 -50 -50 -1 -12 504 -10 533 2 22 8 26 16
26 50 l0 40 -230 0 -229 0 -50 -42z"/>
</g>
</svg>
