<?xml version="1.0" standalone="no"?>
<!DOCTYPE svg PUBLIC "-//W3C//DTD SVG 20010904//EN"
 "http://www.w3.org/TR/2001/REC-SVG-20010904/DTD/svg10.dtd">
<svg version="1.0" xmlns="http://www.w3.org/2000/svg"
 width="512.000000pt" height="512.000000pt" viewBox="0 0 512.000000 512.000000"
 preserveAspectRatio="xMidYMid meet">

<g transform="translate(0.000000,512.000000) scale(0.100000,-0.100000)"
fill="#000000" stroke="none">
<path d="M1185 4710 c-397 -215 -434 -241 -456 -321 -16 -60 -5 -269 21 -387
62 -292 230 -616 429 -834 l52 -57 -25 -113 c-59 -268 -61 -524 -4 -788 11
-52 21 -99 21 -103 1 -4 -36 -22 -83 -40 -47 -18 -100 -43 -118 -56 l-32 -22
-11 28 c-38 101 -95 165 -184 209 l-60 29 -240 0 -240 0 -58 -29 c-68 -35
-140 -108 -170 -174 -22 -47 -22 -47 -22 -802 l0 -755 28 -56 c33 -69 99 -132
175 -167 57 -27 59 -27 287 -27 228 0 230 0 287 27 112 52 193 154 205 259 4
31 10 48 17 45 6 -2 153 -68 326 -146 173 -78 346 -150 385 -160 106 -29 208
-40 460 -50 297 -12 1428 -12 1522 0 86 11 171 40 228 77 39 26 981 888 1084
993 24 25 58 74 75 110 27 58 31 75 31 155 0 81 -3 97 -32 158 -56 117 -160
198 -295 227 -32 7 -58 14 -58 15 0 1 11 35 25 76 52 152 76 300 82 504 7 256
-13 408 -84 630 -71 224 -238 521 -309 551 -69 29 -136 -16 -136 -90 0 -25 16
-59 61 -127 115 -174 200 -382 242 -587 29 -142 36 -386 15 -532 -29 -210
-105 -444 -158 -490 -16 -14 -190 -173 -386 -354 -196 -181 -373 -336 -392
-345 -31 -14 -110 -16 -685 -19 -445 -2 -662 0 -687 8 -102 30 -119 156 -29
213 35 22 44 22 431 27 l395 5 56 26 c134 63 219 190 219 329 0 42 3 47 37 65
67 36 141 118 179 199 84 176 47 383 -93 522 -60 60 -151 107 -237 123 -33 6
-161 11 -284 11 -254 0 -282 5 -347 62 -65 58 -88 112 -83 202 4 92 40 156
112 201 l49 30 426 5 c316 4 432 8 448 18 72 41 70 143 -4 181 -14 7 -103 11
-257 11 l-236 0 0 141 0 141 -29 29 c-49 49 -128 35 -160 -28 -6 -13 -11 -76
-11 -152 l0 -131 -65 0 c-144 0 -248 -42 -346 -139 -76 -76 -113 -147 -131
-248 -41 -243 135 -483 382 -522 36 -6 166 -11 291 -11 223 0 226 0 278 -26
101 -51 157 -168 132 -277 -14 -63 -65 -135 -112 -161 l-35 -19 -47 36 c-25
19 -71 45 -102 56 -55 21 -69 21 -884 21 l-828 0 -16 58 c-54 194 -67 480 -33
684 l19 107 59 -31 c92 -47 143 -49 231 -5 208 103 421 346 576 657 78 158
122 283 152 438 l22 110 66 21 c170 53 300 72 496 72 221 0 390 -30 587 -106
50 -19 105 -35 123 -35 76 0 121 94 74 154 -54 69 -368 162 -629 187 -201 19
-464 -5 -651 -59 l-65 -20 -13 46 c-8 30 -25 58 -50 82 -49 46 -744 421 -791
426 -30 4 -85 -22 -405 -196z m728 -194 l322 -174 3 -90 c7 -219 -97 -520
-266 -773 -107 -160 -226 -280 -353 -357 l-37 -22 -75 50 c-152 102 -332 326
-437 544 -87 183 -134 356 -147 541 -5 74 -3 93 10 103 18 16 639 351 650 352
4 0 152 -78 330 -174z m-1202 -2476 c22 -12 49 -35 59 -53 19 -31 20 -55 20
-735 0 -780 4 -740 -67 -784 -36 -22 -46 -23 -230 -23 -210 0 -217 2 -267 69
-21 27 -21 38 -24 729 -3 796 -7 749 78 794 40 21 55 23 217 23 155 0 178 -2
214 -20z m2385 -141 c107 -51 113 -193 12 -254 -31 -19 -56 -20 -428 -25
l-395 -5 -62 -29 c-123 -56 -197 -166 -197 -292 -1 -129 73 -238 200 -296 l49
-23 705 0 c667 0 708 1 760 19 30 10 69 29 87 40 17 12 190 168 383 346 194
179 368 334 388 345 52 28 153 27 208 -2 99 -52 133 -143 92 -246 -9 -23 -952
-906 -1057 -990 -52 -42 -93 -56 -190 -67 -182 -21 -1588 -5 -1756 20 -128 19
-177 37 -542 201 l-363 163 0 462 0 462 52 47 c64 57 171 112 252 130 48 11
245 14 910 14 840 1 850 1 892 -20z"/>
<path d="M1692 4069 l-155 -160 -46 44 c-25 24 -57 51 -71 61 -65 43 -150 -4
-150 -83 0 -48 27 -82 153 -193 69 -61 81 -68 120 -68 42 0 44 1 235 197 106
109 200 213 208 231 30 68 -17 132 -97 132 -41 0 -45 -3 -197 -161z"/>
<path d="M4029 4021 c-62 -62 -20 -171 65 -171 25 0 45 9 68 29 27 24 33 36
33 71 0 35 -6 47 -33 71 -44 40 -93 40 -133 0z"/>
</g>
</svg>
