<?xml version="1.0" encoding="UTF-8"?>
<svg width="48" height="48" viewBox="0 0 48 48" fill="none" xmlns="http://www.w3.org/2000/svg">
  <!-- Card Terminal Icon - High Quality Design -->
  <rect width="48" height="48" rx="6" fill="#2196F3"/>

  <!-- POS Terminal - Scaled from 32x32 to fit 48x48 -->
  <g transform="translate(8, 8) scale(1)">
    <g id="surface1">
      <path style="stroke:none;fill-rule:nonzero;fill:rgb(100%,86.274511%,39.215687%);fill-opacity:1;" d="M 27.585938 14.34375 L 20.964844 14.34375 L 20.964844 29.792969 L 27.585938 29.792969 C 27.890625 29.792969 28.136719 29.546875 28.136719 29.242188 L 28.136719 14.898438 C 28.136719 14.59375 27.890625 14.34375 27.585938 14.34375 Z"/>
      <path style="stroke:none;fill-rule:nonzero;fill:rgb(35.686275%,36.470589%,43.137255%);fill-opacity:1;" d="M 23.722656 14.34375 L 25.929688 14.34375 L 25.929688 29.792969 L 23.722656 29.792969 Z"/>
      <path style="stroke:none;fill-rule:nonzero;fill:rgb(100%,78.431374%,31.37255%);fill-opacity:1;" d="M 20.964844 14.34375 L 22.621094 14.34375 L 22.621094 29.792969 L 20.964844 29.792969 Z"/>
      <path style="stroke:none;fill-rule:nonzero;fill:rgb(35.686275%,36.470589%,43.137255%);fill-opacity:1;" d="M 19.308594 32 L 6.070312 32 C 4.851562 32 3.863281 31.011719 3.863281 29.792969 L 3.863281 6.621094 C 3.863281 5.402344 4.851562 4.414062 6.070312 4.414062 L 19.308594 4.414062 C 20.527344 4.414062 21.515625 5.402344 21.515625 6.621094 L 21.515625 29.792969 C 21.515625 31.011719 20.527344 32 19.308594 32 Z"/>
      <path style="stroke:none;fill-rule:nonzero;fill:rgb(27.450982%,27.450982%,33.333334%);fill-opacity:1;" d="M 6.621094 29.792969 L 6.621094 6.621094 C 6.621094 5.402344 7.609375 4.414062 8.828125 4.414062 L 6.070312 4.414062 C 4.851562 4.414062 3.863281 5.402344 3.863281 6.621094 L 3.863281 29.792969 C 3.863281 31.011719 4.851562 32 6.070312 32 L 8.828125 32 C 7.609375 32 6.621094 31.011719 6.621094 29.792969 Z"/>
      <path style="stroke:none;fill-rule:nonzero;fill:rgb(27.450982%,27.450982%,33.333334%);fill-opacity:1;" d="M 19.308594 8.828125 L 6.070312 8.828125 C 5.765625 8.828125 5.515625 8.582031 5.515625 8.277344 C 5.515625 7.972656 5.765625 7.722656 6.070312 7.722656 L 19.308594 7.722656 C 19.617188 7.722656 19.863281 7.972656 19.863281 8.277344 C 19.863281 8.582031 19.617188 8.828125 19.308594 8.828125 Z"/>
      <!-- Keypad buttons -->
      <path style="stroke:none;fill-rule:nonzero;fill:rgb(78.039217%,81.176472%,88.627452%);fill-opacity:1;" d="M 12.964844 20.964844 L 12.414062 20.964844 C 11.804688 20.964844 11.308594 20.472656 11.308594 19.863281 C 11.308594 19.253906 11.804688 18.757812 12.414062 18.757812 L 12.964844 18.757812 C 13.574219 18.757812 14.070312 19.253906 14.070312 19.863281 C 14.070312 20.472656 13.574219 20.964844 12.964844 20.964844 Z"/>
      <path style="stroke:none;fill-rule:nonzero;fill:rgb(78.039217%,81.176472%,88.627452%);fill-opacity:1;" d="M 12.964844 25.378906 L 12.414062 25.378906 C 11.804688 25.378906 11.308594 24.886719 11.308594 24.277344 C 11.308594 23.667969 11.804688 23.171875 12.414062 23.171875 L 12.964844 23.171875 C 13.574219 23.171875 14.070312 23.667969 14.070312 24.277344 C 14.070312 24.886719 13.574219 25.378906 12.964844 25.378906 Z"/>
      <path style="stroke:none;fill-rule:nonzero;fill:rgb(100%,86.274511%,39.215687%);fill-opacity:1;" d="M 12.964844 29.792969 L 12.414062 29.792969 C 11.804688 29.792969 11.308594 29.300781 11.308594 28.691406 C 11.308594 28.082031 11.804688 27.585938 12.414062 27.585938 L 12.964844 27.585938 C 13.574219 27.585938 14.070312 28.082031 14.070312 28.691406 C 14.070312 29.300781 13.574219 29.792969 12.964844 29.792969 Z"/>
      <path style="stroke:none;fill-rule:nonzero;fill:rgb(78.039217%,81.176472%,88.627452%);fill-opacity:1;" d="M 17.929688 20.964844 L 17.378906 20.964844 C 16.769531 20.964844 16.277344 20.472656 16.277344 19.863281 C 16.277344 19.253906 16.769531 18.757812 17.378906 18.757812 L 17.929688 18.757812 C 18.539062 18.757812 19.035156 19.253906 19.035156 19.863281 C 19.035156 20.472656 18.539062 20.964844 17.929688 20.964844 Z"/>
      <path style="stroke:none;fill-rule:nonzero;fill:rgb(78.039217%,81.176472%,88.627452%);fill-opacity:1;" d="M 17.929688 25.378906 L 17.378906 25.378906 C 16.769531 25.378906 16.277344 24.886719 16.277344 24.277344 C 16.277344 23.667969 16.769531 23.171875 17.378906 23.171875 L 17.929688 23.171875 C 18.539062 23.171875 19.035156 23.667969 19.035156 24.277344 C 19.035156 24.886719 18.539062 25.378906 17.929688 25.378906 Z"/>
      <path style="stroke:none;fill-rule:nonzero;fill:rgb(78.431374%,100%,50.980395%);fill-opacity:1;" d="M 17.929688 29.792969 L 17.378906 29.792969 C 16.769531 29.792969 16.277344 29.300781 16.277344 28.691406 C 16.277344 28.082031 16.769531 27.585938 17.378906 27.585938 L 17.929688 27.585938 C 18.539062 27.585938 19.035156 28.082031 19.035156 28.691406 C 19.035156 29.300781 18.539062 29.792969 17.929688 29.792969 Z"/>
      <path style="stroke:none;fill-rule:nonzero;fill:rgb(78.039217%,81.176472%,88.627452%);fill-opacity:1;" d="M 8 20.964844 L 7.449219 20.964844 C 6.839844 20.964844 6.34375 20.472656 6.34375 19.863281 C 6.34375 19.253906 6.839844 18.757812 7.449219 18.757812 L 8 18.757812 C 8.609375 18.757812 9.101562 19.253906 9.101562 19.863281 C 9.101562 20.472656 8.609375 20.964844 8 20.964844 Z"/>
      <path style="stroke:none;fill-rule:nonzero;fill:rgb(78.039217%,81.176472%,88.627452%);fill-opacity:1;" d="M 8 25.378906 L 7.449219 25.378906 C 6.839844 25.378906 6.34375 24.886719 6.34375 24.277344 C 6.34375 23.667969 6.839844 23.171875 7.449219 23.171875 L 8 23.171875 C 8.609375 23.171875 9.101562 23.667969 9.101562 24.277344 C 9.101562 24.886719 8.609375 25.378906 8 25.378906 Z"/>
      <path style="stroke:none;fill-rule:nonzero;fill:rgb(100%,31.37255%,49.019608%);fill-opacity:1;" d="M 8 29.792969 L 7.449219 29.792969 C 6.839844 29.792969 6.34375 29.300781 6.34375 28.691406 C 6.34375 28.082031 6.839844 27.585938 7.449219 27.585938 L 8 27.585938 C 8.609375 27.585938 9.101562 28.082031 9.101562 28.691406 C 9.101562 29.300781 8.609375 29.792969 8 29.792969 Z"/>
      <!-- Screen -->
      <path style="stroke:none;fill-rule:nonzero;fill:rgb(70.588237%,90.196079%,43.137255%);fill-opacity:1;" d="M 18.757812 10.484375 L 6.621094 10.484375 C 6.316406 10.484375 6.070312 10.730469 6.070312 11.035156 L 6.070312 16 C 6.070312 16.304688 6.316406 16.550781 6.621094 16.550781 L 18.757812 16.550781 C 19.0625 16.550781 19.308594 16.304688 19.308594 16 L 19.308594 11.035156 C 19.308594 10.730469 19.0625 10.484375 18.757812 10.484375 Z"/>
      <!-- Receipt paper -->
      <path style="stroke:none;fill-rule:nonzero;fill:rgb(89.411765%,91.764706%,97.254902%);fill-opacity:1;" d="M 17.242188 0.550781 L 15.722656 0 L 14.207031 0.550781 L 12.691406 0 L 11.171875 0.550781 L 9.65625 0 L 8.136719 0.550781 L 6.621094 0 L 6.621094 8.828125 L 18.757812 8.828125 L 18.757812 0 Z"/>
      <!-- Receipt details -->
      <path style="stroke:none;fill-rule:nonzero;fill:rgb(43.921569%,45.490196%,52.941179%);fill-opacity:1;" d="M 16.550781 6.621094 L 14.34375 6.621094 C 14.039062 6.621094 13.792969 6.375 13.792969 6.070312 C 13.792969 5.765625 14.039062 5.515625 14.34375 5.515625 L 16.550781 5.515625 C 16.855469 5.515625 17.101562 5.765625 17.101562 6.070312 C 17.101562 6.375 16.855469 6.621094 16.550781 6.621094 Z"/>
      <path style="stroke:none;fill-rule:nonzero;fill:rgb(49.803922%,51.764709%,60.000002%);fill-opacity:1;" d="M 12.136719 6.621094 L 8.828125 6.621094 C 8.523438 6.621094 8.277344 6.375 8.277344 6.070312 C 8.277344 5.765625 8.523438 5.515625 8.828125 5.515625 L 12.136719 5.515625 C 12.441406 5.515625 12.691406 5.765625 12.691406 6.070312 C 12.691406 6.375 12.441406 6.621094 12.136719 6.621094 Z"/>
      <path style="stroke:none;fill-rule:nonzero;fill:rgb(49.803922%,51.764709%,60.000002%);fill-opacity:1;" d="M 16.550781 4.414062 L 15.449219 4.414062 C 15.144531 4.414062 14.898438 4.167969 14.898438 3.863281 C 14.898438 3.558594 15.144531 3.308594 15.449219 3.308594 L 16.550781 3.308594 C 16.855469 3.308594 17.101562 3.558594 17.101562 3.863281 C 17.101562 4.167969 16.855469 4.414062 16.550781 4.414062 Z"/>
      <path style="stroke:none;fill-rule:nonzero;fill:rgb(49.803922%,51.764709%,60.000002%);fill-opacity:1;" d="M 13.242188 4.414062 L 12.136719 4.414062 C 11.832031 4.414062 11.585938 4.167969 11.585938 3.863281 C 11.585938 3.558594 11.832031 3.308594 12.136719 3.308594 L 13.242188 3.308594 C 13.546875 3.308594 13.792969 3.558594 13.792969 3.863281 C 13.792969 4.167969 13.546875 4.414062 13.242188 4.414062 Z"/>
      <path style="stroke:none;fill-rule:nonzero;fill:rgb(43.921569%,45.490196%,52.941179%);fill-opacity:1;" d="M 9.929688 4.414062 L 8.828125 4.414062 C 8.523438 4.414062 8.277344 4.167969 8.277344 3.863281 C 8.277344 3.558594 8.523438 3.308594 8.828125 3.308594 L 9.929688 3.308594 C 10.234375 3.308594 10.484375 3.558594 10.484375 3.863281 C 10.484375 4.167969 10.234375 4.414062 9.929688 4.414062 Z"/>
      <path style="stroke:none;fill-rule:nonzero;fill:rgb(83.529413%,86.274511%,92.941177%);fill-opacity:1;" d="M 6.621094 7.722656 L 18.757812 7.722656 L 18.757812 8.828125 L 6.621094 8.828125 Z"/>
      <!-- Screen display elements -->
      <path style="stroke:none;fill-rule:nonzero;fill:rgb(78.431374%,100%,50.980395%);fill-opacity:1;" d="M 12.484375 15.203125 L 14.664062 11.933594 C 14.765625 11.785156 14.65625 11.585938 14.480469 11.585938 L 11.328125 11.585938 C 11.144531 11.585938 10.972656 11.679688 10.871094 11.832031 L 8.6875 15.105469 C 8.589844 15.25 8.695312 15.449219 8.871094 15.449219 L 12.027344 15.449219 C 12.210938 15.449219 12.382812 15.355469 12.484375 15.203125 Z"/>
      <path style="stroke:none;fill-rule:nonzero;fill:rgb(78.431374%,100%,50.980395%);fill-opacity:1;" d="M 15.246094 15.203125 L 17.425781 11.933594 C 17.523438 11.785156 17.417969 11.585938 17.238281 11.585938 L 16.296875 11.585938 C 16.109375 11.585938 15.9375 11.679688 15.835938 11.832031 L 13.652344 15.105469 C 13.554688 15.25 13.660156 15.449219 13.835938 15.449219 L 14.785156 15.449219 C 14.96875 15.449219 15.140625 15.355469 15.246094 15.203125 Z"/>
    </g>
  </g>
</svg>
