<?xml version="1.0" encoding="UTF-8"?>
<svg width="48" height="48" viewBox="0 0 48 48" fill="none" xmlns="http://www.w3.org/2000/svg">
  <!-- Cash/Money Icon - Professional Design -->
  <rect width="48" height="48" rx="6" fill="#4CAF50"/>

  <!-- Money Bill based on provided design -->
  <g transform="translate(6, 12) scale(0.07)">
    <path fill="#427D2A" d="M55.708 0H512v253.196l-32.271.146 2.253-185.798.086-2.218c.019-16.411-13.279-29.735-29.691-29.754l-396.669-.156V0z"/>
    <path fill="#427D2A" d="M0 60.065h456.298v236.873H0z"/>
    <path fill="#87CC71" d="M382.151 96.888c-.241 17.62 15.287 33.558 33.564 33.777v93.72c-19.252-.241-35.187 15.287-35.406 36.278H76.733c.242-19.252-15.29-35.191-33.563-35.41v-93.72c19.325.219 35.273-15.3 35.492-34.645h303.489z"/>
    <circle fill="#427D2A" transform="rotate(-61.974 264.087 -101.323) scale(17.72889)" r="3.938"/>
  </g>
</svg>
