<svg xmlns="http://www.w3.org/2000/svg" viewBox="0 0 512 512"><path d="M173.7 247.8h2.4a2926 2926 0 0 1 39 0 23300.6 23300.6 0 0 1 92.6-.3 3036 3036 0 0 0 37-.1c18.9-.2 18.9-.2 26.3 5.6 6.8 7 8.3 14.2 8.2 23.7v2.5a1587.3 1587.3 0 0 1 0 29.1l-.1 15.5-.1 30.2h3.4c5.5 0 9.2 1.9 13.3 5.5 5 5.4 7.4 11 7.8 18.4-.4 9.7-5.5 15.5-12.3 21.8L384 406l-2.2 2-3.7 3.1-8.6 7.9-10.5 9.5c-4.1 3.6-8 7.3-12 11L332 453l-16.1 14.6a469.4 469.4 0 0 1-16.7 15 100.5 100.5 0 0 1-77.5 25.8l-2.4-.2c-16-1.5-30.4-8.2-44.7-15A3839.3 3839.3 0 0 0 118 467l-.4 2.9c-1 5.5-4.2 9-8.5 12.4-7.2 4-13.9 4-22 4h-3.4a1638.8 1638.8 0 0 1-25 .2h-9.2c-3.4-.7-5-2-7.5-4.5-.6-2.9-.6-2.9-.6-6.3v-4a6465 6465 0 0 1 0-21.1v-12.9a4877.2 4877.2 0 0 1 .1-46.7 7477.1 7477.1 0 0 1 .1-56.8v-3.4c.4-2.8.4-2.8 1.7-4.6 3.1-2.2 5.9-2.3 9.5-2.4H62.2a2828.7 2828.7 0 0 1 27.2-.2c8 0 16 1.3 22.6 6.4 5 5.8 5 5.8 5 10h32l-.1-6.8a3347 3347 0 0 1-.5-49v-5c-.2-9.6-.2-17.8 6.6-25.2 6-4.8 11-6.1 18.7-6.2ZM165 269c-.5 2.8-.7 5-.6 7.8v2.3a498 498 0 0 0 0 13 1356.8 1356.8 0 0 0 0 25.4 1303.1 1303.1 0 0 0 0 16.3A60 60 0 0 0 170 363a448374662.2 448374662.2 0 0 0 46 .4h3.8c10.4.2 17.7 2.5 25.3 9.6a37 37 0 0 1 10.1 26.9c-.4 4-1.3 8-2.2 12.1 6-1.9 11.7-4.2 17.4-7l2.3-1.2 4.9-2.5 12.9-6.5 2.5-1.3a911 911 0 0 1 20.8-10.1l29.4-14.2A110021.3 110021.3 0 0 1 362 360a6952.6 6952.6 0 0 0 .6-83.1v-2.6c0-4 0-5.7-2.7-8.8-3.4-1.7-5.4-2-9.2-2H347a6369.8 6369.8 0 0 0-19 .2l-11.2.1-21.8.2a199856002.6 199856002.6 0 0 1-.5 36.2v3c-.2 9-.2 9-3.5 12.8a9 9 0 0 1-8 .2c-5.6-3-10.5-6.8-15.4-10.8-2.5-1.7-2.5-1.7-5-1-4.1 2.5-8 5.3-11.8 8.1-4.8 3.4-8 4.3-13.8 3.5-2.2-1.6-3-2.5-3.4-5.2v-5.6l-.1-3.2v-3.3a1723.5 1723.5 0 0 1-.3-17.4L233 264a3214.4 3214.4 0 0 0-50.8-.5h-5.8l-3.4-.1c-4.1.8-5.5 2.2-8 5.6Zm84-5v30l11-7c4-.9 5.8-.7 9.4 1.4 1.6 1 3.1 2.1 4.7 3.3 1.8 1.5 1.8 1.5 3.9 1.3v-29h-29ZM58 341v128h41c3.7-3.7 4.1-5.8 4.1-10.7v-9.6a4571.7 4571.7 0 0 0 .2-54 4846.2 4846.2 0 0 0 0-36.5V355c0-5.7 0-9.8-4.3-14H58Zm61 15v93c34.4 16.2 34.4 16.2 69 32l2 1 6.5 2.8 2 .8c18.8 8.4 41 9.5 60.5 2.4 16-6.4 28-16.7 40.4-28.5 2.4-2.3 5-4.5 7.5-6.7 3-2.5 5.8-5.2 8.6-7.8l10.5-9.5c4.1-3.6 8-7.3 12-11l15-13.5 17.7-16 8.8-7.9c2.9-2.5 5.5-4.8 7.5-8.1 0-3.3-.8-4.7-2.6-7.4-2.8-1.9-4-1.7-7.3-1.2-4.3 1.2-8.2 3.4-12.1 5.5-7.5 3.9-15 7.6-22.7 11.2a3293.8 3293.8 0 0 0-44 21.4l-3.1 1.6-6.5 3.1c-5.4 2.6-10.8 5.4-16 8.4-18.2 10.2-33.6 11.2-53.8 10.5l-9.4-.1c-3.7 0-7.4 0-11.2-.2h-2.1l-6-.1-3.3-.1c-3.5-.7-4.7-1.8-6.9-4.6-.6-3.5-.5-5.2 1.5-8.2 3.7-2.7 7-2.3 11.6-2.3h24.8c6.5 0 11.8-1.5 16.6-5.9 3.5-3.8 5.5-7.6 5.5-12.8-.4-6-2-10-6.5-14.2-4.6-4-7.7-4.7-13.6-4.7h-14.5a2097.9 2097.9 0 0 0-40.4-.3c-4-.8-5.5-2.5-8-5.6-1.2-3-1.2-3-2-6-1.4-5-2.5-6.6-6-11h-30ZM373.4 29.8A13896418190 13896418190 0 0 1 400.7 45l3 1.6C406 48 406 48 407 49a97.7 97.7 0 0 0 8.8 0h3.8a11488 11488 0 0 1 32.3-.4h10.3c3.9.6 5.3 1.3 7.8 4.4.8 3.9.7 7.7.6 11.7V88.4a3055 3055 0 0 1 0 37.2 3725.7 3725.7 0 0 1 0 38.7v9.3c-.8 3.2-2.1 4.4-4.6 6.4-2.5.5-2.5.5-5.3.5h-6.8a762515177 762515177 0 0 1-30 .1h-3.5c-8.2 0-15.3-1.6-21.3-7.5a86.6 86.6 0 0 1-4.1-5.1 171244464.3 171244464.3 0 0 0-10.4 6.6l-2.9 1.9C357.4 192 357.4 192 344 193l-2 .2c-16.8.7-30.5-7.2-44-16.2-7.2 10.7-14.3 21.5-21.1 32.4-10.7 17-10.7 17-15.9 18.6-7.3-1.4-13.3-5.4-19.4-9.4l-5.8-3.8-3-2a958.3 958.3 0 0 0-17.2-10.9l-2.3-1.4-11.8-7.5-4.8-3-85.4-54-2.4-1.5a9923.9 9923.9 0 0 1-17-10.7l-2.6-1.6-4.8-3c-13.2-8.3-13.2-8.3-16.5-13.2a24 24 0 0 1 4.1-12.7l2-3.2 1.2-1.8 4.6-7.4 2.4-3.9 12-20a4107.3 4107.3 0 0 1 24.3-40.6l1.7-2.9C122 11 123.7 9 126 7c7.8-1.4 12.5 2.3 18.9 6.5l6.4 4.2 3.3 2.1c5.4 3.5 11 6.9 16.4 10.2l29 18a295 295 0 0 0 17 10l2.3-2.3a7567.6 7567.6 0 0 1 12-12c12-12.1 12-12.1 18.1-17.4 2-1.7 4-3.5 5.8-5.3 37.7-33.3 81.3-12.6 118.2 8.8Zm-122 17.8c-5.5 5.5-10.8 11-16.8 16-1.8 1.5-1.8 1.5-3.6 4.4a2860.3 2860.3 0 0 0 58 36l13.2 8.2 7.3 4.4a1325 1325 0 0 0 11.3 7c2.2 1.4 2.2 1.4 3.2 3.4.4 6.5.4 6.5-2 10-3.8 1.4-5.7 1.6-9.4 0a469 469 0 0 1-20-12l-3-2A986 986 0 0 1 274 113l-2.9-1.8-5.2-3.4c-5.3-3.4-8.7-4.7-15-3.9-4.3 2.2-7.3 4.4-9 9-.3 6 .9 9.5 5 14a94.9 94.9 0 0 0 8.8 5.5l6.4 3.7a4309.2 4309.2 0 0 1 25.6 15.2c6.6 4.3 13.4 8.4 20.2 12.4l13.2 8.1c7.7 4.6 17 5.6 25.8 4.1a73.2 73.2 0 0 0 21.9-10.8l5.4-3.5 2.6-1.8c3.1-1.9 3.1-1.9 6.4-3.4 6.4-2.8 6.4-2.8 10.4-8.3 1.2-5.5 1-11 .8-16.7v-5.4l-.2-14.3-.1-14.4L394 81v-2.5L394 74c-.1-4.5.3-8.6 1-13l-2.1-1.2a4988.6 4988.6 0 0 1-52-29.2c-33.6-20-63.6-9.6-89.5 17ZM132 27c-1.5 1.7-1.5 1.7-2.8 3.8L128 33c-1.2 2.1-1.2 2.1.1 5 5.4-.5 9.3-1.1 14-4l1-2a397.1 397.1 0 0 0-6-4c-2-1.2-2-1.2-5-1Zm22 17.8a36 36 0 0 1-24.4 8.3H127c-3.3-.1-6.6-.6-9.9-1.1l-14 23 6 8a32.4 32.4 0 0 1 3.2 6.8c1.7 4.8 2 9.1 2 14.1v3.6c-.2 3.3-.6 6.3-1.2 9.5 6.4 4.6 13 9 19.8 13l22.3 14 2.8 1.8a118618.5 118618.5 0 0 1 24.8 15.7l11.8 7.5a718047.3 718047.3 0 0 0 14.6 9.2l2.6 1.7a27762.4 27762.4 0 0 1 13.5 8.6l2.1 1.5 1.9 1.3c1.8 1 1.8 1 4-.1l1.8-1.2 1.9-1.2 3.7-2.5a35.3 35.3 0 0 1 19.6-4.6h2.4c3.9.1 7.6.3 11.4 1.3l4.5-6.9 1.3-2c2.4-3.3 2.4-3.3 3.2-7.1-2-1.4-4-2.6-6-3.8l-1.9-1.1-6.1-3.6a4900.8 4900.8 0 0 1-10.3-6.1 630 630 0 0 1-17.2-10.6 50.9 50.9 0 0 0-6.8-3.8c-3.7-2.1-4.5-7-5.8-10.8l-1.1-3-.8-2.2h-2l-.6 2.6c-2.3 8.4-4.9 15-12.5 19.7-8.7 4.5-18.4 5-28 3a27 27 0 0 1-15.2-12.6 35 35 0 0 1-2-27.5A27.8 27.8 0 0 1 183 90a37.2 37.2 0 0 1 29.1 2.7A30.3 30.3 0 0 1 225 115c1.6-3 2.8-6.1 3.9-9.4 2-5.7 4-9.2 9.1-12.6v-2c-2.1-1.6-2.1-1.6-5-3.2l-3.2-2a43480.2 43480.2 0 0 0-14.3-8.7 1529.3 1529.3 0 0 1-19.4-12l-2.5-1.5a8442.2 8442.2 0 0 0-13.7-8.5l-2.7-1.6L161 43c-3.4-2-4.4-.8-6.9 1.6ZM411 68c-2.5 3.8-2.3 6.9-2.3 11.3v2.5a1499.1 1499.1 0 0 0 0 26.4 3479.7 3479.7 0 0 1 0 41.4v2.4c0 5.4 0 5.4 2.3 10 12.8 6.4 28.7 2 43 2V65c-22.5-2.2-22.5-2.2-43 3ZM93 91l-2.5 4.4-1.4 2.4c-1.3 2-1.3 2-1.1 4.2 1.7 1.4 1.7 1.4 3.8 2.6L94 106c2 1.2 2 1.2 5 1 .4-5.8-.5-9.7-3-15l-3-1Zm91 17a17.1 17.1 0 0 0-4 12.1c1 5 3.3 8.5 7.2 11.8 4.6 1.8 9.1 2 13.8.4 4-2 6.5-4.1 8-8.3.7-5.3.7-9.6-1.7-14.5-3.9-4.2-6.5-5.7-12.2-6-4.8.2-7.5 1.1-11.1 4.5Zm63 93c2.7 2.8 5.6 5 9 7h2c1.6-2 1.6-2 3.1-4.4l1.7-2.4c1.4-2 1.4-2 1.2-4.2-6.9-.6-11 .5-17 4Z"/><path d="M306 346.5h3.9c10.3-.1 10.3-.1 13.4 2.8 2.2 3.6 2.4 5.6 1.7 9.7-2.2 3-3.4 4-7.2 4.5H312a304.9 304.9 0 0 1-10.8.1h-8c-3.2-.6-3.2-.6-5.6-3-1.6-2.7-2.1-3.7-1.7-6.7l.3-2c3.2-7.2 13.4-5.4 19.8-5.4ZM84 439c2.4 1.5 2.4 1.5 4 4 .8 4 .6 7-1.6 10.5-3.3 2-5.5 2-9.4 1.5-2.4-1-2.4-1-4-3a17 17 0 0 1-1-8c3.3-5 6.2-6 12-5ZM436 134c2.9 1.7 3 3 4 6.4 0 3.6 0 3.6-1.4 6.5-3.1 2.5-4.8 2.8-8.7 2.5-1.9-.4-1.9-.4-4.4-1.9A12.7 12.7 0 0 1 424 137c3.6-4.5 6.6-4.5 12-3Z"/></svg>